<?xml version="1.0" standalone="no"?>
<!DOCTYPE svg PUBLIC "-//W3C//DTD SVG 20010904//EN"
 "http://www.w3.org/TR/2001/REC-SVG-20010904/DTD/svg10.dtd">
<svg version="1.0" xmlns="http://www.w3.org/2000/svg"
 width="700.000000pt" height="700.000000pt" viewBox="0 0 700.000000 700.000000"
 preserveAspectRatio="xMidYMid meet">
<metadata>
Created by potrace 1.11, written by Peter Selinger 2001-2013
</metadata>
<g transform="translate(0.000000,700.000000) scale(0.100000,-0.100000)"
fill="#000000" stroke="none">
<path d="M2276 6990 c-35 -11 -63 -36 -84 -75 -14 -27 -16 -229 -18 -1965 -1
-1064 -5 -1953 -8 -1975 -34 -238 -110 -331 -301 -371 -31 -7 -176 -7 -220 0
-138 20 -226 92 -269 220 -17 49 -19 62 -35 176 -5 36 -9 591 -10 1234 -1
1315 5 1221 -75 1260 -36 18 -65 19 -375 19 -185 0 -348 -3 -362 -6 -42 -8
-68 -29 -88 -70 -18 -37 -19 -82 -17 -1335 2 -713 6 -1319 9 -1347 6 -42 18
-117 22 -135 1 -3 5 -21 9 -40 66 -305 248 -569 491 -712 95 -56 239 -117 315
-133 8 -2 36 -8 63 -14 26 -6 64 -14 85 -16 20 -3 48 -8 62 -10 200 -35 536
-19 759 36 443 110 738 420 829 874 34 168 35 178 37 956 1 723 2 757 21 794
35 72 54 77 317 80 284 3 457 18 582 49 242 61 401 143 528 273 214 219 307
520 301 976 -2 106 -5 210 -7 232 -24 235 -102 466 -205 610 -131 183 -382
333 -639 380 -16 3 -39 7 -53 10 -14 3 -43 7 -65 10 -22 3 -56 8 -75 12 -57
10 -1492 13 -1524 3z m1423 -920 c169 -28 222 -109 226 -348 4 -219 -48 -315
-190 -352 -33 -8 -131 -14 -283 -15 -220 -2 -236 -1 -275 19 -76 38 -80 56
-82 320 0 127 3 250 8 274 10 46 53 98 90 105 47 9 445 6 506 -3z"/>
<path d="M3895 3740 c-71 -8 -107 -29 -130 -75 -20 -40 -20 -54 -20 -1800 0
-1731 1 -1761 20 -1793 11 -18 38 -41 61 -53 40 -19 58 -20 391 -17 l350 3 36
25 c22 15 42 39 49 60 9 26 12 268 12 927 1 933 1 934 42 908 15 -10 45 -79
284 -665 73 -179 139 -341 147 -360 8 -19 18 -44 23 -55 7 -20 44 -110 61
-150 5 -11 61 -148 125 -305 63 -157 127 -300 140 -318 14 -18 42 -41 63 -52
37 -18 60 -19 487 -17 497 2 490 1 528 67 21 35 21 40 22 1790 1 1163 -2 1765
-9 1785 -14 41 -36 65 -76 82 -27 11 -102 14 -372 15 -326 0 -340 -1 -383 -21
-83 -41 -77 25 -78 -984 0 -549 -3 -898 -9 -909 -13 -24 -36 -23 -49 1 -9 17
-227 549 -415 1011 -35 85 -91 223 -125 305 -34 83 -91 222 -127 310 -91 224
-112 254 -184 275 -38 11 -777 19 -864 10z"/>
</g>
</svg>
