<svg xmlns="http://www.w3.org/2000/svg"><symbol id="close" viewBox="0 0 24 24"><path d="M19 6.4L17.6 5 12 10.6 6.4 5 5 6.4l5.6 5.6L5 17.6 6.4 19l5.6-5.6 5.6 5.6 1.4-1.4-5.6-5.6z"/><path fill="none" d="M0 0h24v24H0z"/></symbol><symbol id="play-circle-filled" viewBox="0 0 24 24"><path fill="none" d="M0 0h24v24H0z"/><path d="M12 2a10 10 0 1 0 10 10A10 10 0 0 0 12 2zm-2 14.5v-9l6 4.5z"/></symbol><symbol id="account-circle" viewBox="0 0 24 24"><path d="M12 2a10 10 0 1 0 10 10A10 10 0 0 0 12 2zm0 3a2.9 2.9 0 0 1 3 3 3 3 0 0 1-6 0 2.9 2.9 0 0 1 3-3zm0 14.2A7.3 7.3 0 0 1 6 16c0-2 4-3.1 6-3.1s6 1.1 6 3.1a7.3 7.3 0 0 1-6 3.2z"/><path fill="none" d="M0 0h24v24H0z"/></symbol><symbol id="search" viewBox="0 0 24 24"><path d="M15.5 14h-.8l-.3-.3A6.3 6.3 0 0 0 16 9.5 6.5 6.5 0 1 0 9.5 16a6.3 6.3 0 0 0 4.2-1.6l.3.3v.8l5 5 1.5-1.5zm-6 0A4.5 4.5 0 1 1 14 9.5 4.5 4.5 0 0 1 9.5 14z"/><path fill="none" d="M0 0h24v24H0z"/></symbol><symbol id="menu" viewBox="0 0 24 24"><path fill="none" d="M0 0h24v24H0z"/><path d="M3 18h18v-2H3zm0-5h18v-2H3zm0-7v2h18V6z"/></symbol><symbol id="tv" viewBox="0 0 24 24"><path fill="none" d="M0 0h24v24H0z"/><path d="M21 3H3a2 2 0 0 0-2 2v12a2 2 0 0 0 2 2h5v2h8v-2h5a2 2 0 0 0 2-2V5a2 2 0 0 0-2-2zm0 14H3V5h18z"/></symbol></svg>