<svg xmlns="http://www.w3.org/2000/svg"><symbol id="close" viewBox="0 0 24 24"><path d="M19 6.4L17.6 5 12 10.6 6.4 5 5 6.4l5.6 5.6L5 17.6 6.4 19l5.6-5.6 5.6 5.6 1.4-1.4-5.6-5.6z"/><path fill="none" d="M0 0h24v24H0z"/></symbol><symbol id="instagram" viewBox="0 0 24 24"><path d="M12 2.2h4.8a12.4 12.4 0 0 1 2.3.4l1.4.9a11 11 0 0 1 .9 1.4 12.4 12.4 0 0 1 .4 2.3v9.6a12.4 12.4 0 0 1-.4 2.3 11 11 0 0 1-.9 1.4l-1.4.9a12.4 12.4 0 0 1-2.3.4H7.2a12.4 12.4 0 0 1-2.3-.4l-1.4-.9a11 11 0 0 1-.9-1.4 12.4 12.4 0 0 1-.4-2.3V7.2a12.4 12.4 0 0 1 .4-2.3 11 11 0 0 1 .9-1.4l1.4-.9a12.4 12.4 0 0 1 2.3-.4H12M12 0H7.1a8.1 8.1 0 0 0-3 .5A6.4 6.4 0 0 0 .6 4.1a8.1 8.1 0 0 0-.5 3C0 8.3 0 8.7 0 12s0 3.7.1 4.9a8.1 8.1 0 0 0 .5 3 6.4 6.4 0 0 0 3.5 3.5 8.1 8.1 0 0 0 3 .5h9.8a8.1 8.1 0 0 0 3-.5 6.4 6.4 0 0 0 3.5-3.5 8.1 8.1 0 0 0 .5-3c.1-1.2.1-1.6.1-4.9s0-3.7-.1-4.9a8.1 8.1 0 0 0-.5-3A6.4 6.4 0 0 0 19.9.6a8.1 8.1 0 0 0-3-.5z"/><path d="M12 5.8a6.2 6.2 0 1 0 6.2 6.2A6.2 6.2 0 0 0 12 5.8zM12 16a4 4 0 1 1 4-4 4 4 0 0 1-4 4z"/><circle cx="18.4" cy="5.6" r="1.4"/></symbol><symbol id="account-circle" viewBox="0 0 24 24"><path d="M12 2a10 10 0 1 0 10 10A10 10 0 0 0 12 2zm0 3a2.9 2.9 0 0 1 3 3 3 3 0 0 1-6 0 2.9 2.9 0 0 1 3-3zm0 14.2A7.3 7.3 0 0 1 6 16c0-2 4-3.1 6-3.1s6 1.1 6 3.1a7.3 7.3 0 0 1-6 3.2z"/><path fill="none" d="M0 0h24v24H0z"/></symbol><symbol id="facebook" viewBox="0 0 24 24"><path d="M22.7 0H1.3A1.3 1.3 0 0 0 0 1.3v21.4A1.3 1.3 0 0 0 1.3 24h11.5v-9.3H9.7v-3.6h3.1V8.4c0-3.1 1.9-4.8 4.7-4.8l2.8.2V7h-1.9c-1.5 0-1.8.7-1.8 1.8v2.3h3.5l-.4 3.6h-3.1V24h6.1a1.3 1.3 0 0 0 1.3-1.3V1.3A1.3 1.3 0 0 0 22.7 0z"/></symbol><symbol id="play-circle-filled" viewBox="0 0 24 24"><path fill="none" d="M0 0h24v24H0z"/><path d="M12 2a10 10 0 1 0 10 10A10 10 0 0 0 12 2zm-2 14.5v-9l6 4.5z"/></symbol><symbol id="menu" viewBox="0 0 24 24"><path fill="none" d="M0 0h24v24H0z"/><path d="M3 18h18v-2H3zm0-5h18v-2H3zm0-7v2h18V6z"/></symbol><symbol id="movie" viewBox="0 0 24 24"><path d="M18 4l2 4h-3l-2-4h-2l2 4h-3l-2-4H8l2 4H7L5 4H4a2 2 0 0 0-2 2v12a2 2 0 0 0 2 2h16a2 2 0 0 0 2-2V4z"/><path fill="none" d="M0 0h24v24H0z"/></symbol><symbol id="search" viewBox="0 0 24 24"><path d="M15.5 14h-.8l-.3-.3A6.3 6.3 0 0 0 16 9.5 6.5 6.5 0 1 0 9.5 16a6.3 6.3 0 0 0 4.2-1.6l.3.3v.8l5 5 1.5-1.5zm-6 0A4.5 4.5 0 1 1 14 9.5 4.5 4.5 0 0 1 9.5 14z"/><path fill="none" d="M0 0h24v24H0z"/></symbol><symbol id="twitter" viewBox="0 0 24 24"><path fill-rule="evenodd" d="M24 4.6a8.9 8.9 0 0 1-2.8.7 4.4 4.4 0 0 0 2.1-2.7 8.4 8.4 0 0 1-3.1 1.2 5.1 5.1 0 0 0-3.6-1.5 4.9 4.9 0 0 0-4.9 4.9 4.1 4.1 0 0 0 .1 1.1A14 14 0 0 1 1.7 3.2 4 4 0 0 0 1 5.6a5 5 0 0 0 2.2 4.1A4 4 0 0 1 1 9.1 4.9 4.9 0 0 0 4.9 14l-1.3.2h-.9a4.9 4.9 0 0 0 4.6 3.4 10 10 0 0 1-6.1 2.1H0a14 14 0 0 0 7.5 2.2 14 14 0 0 0 14.1-14 1.3 1.3 0 0 0-.1-.6A11.8 11.8 0 0 0 24 4.6z"/></symbol><symbol id="tv" viewBox="0 0 24 24"><path fill="none" d="M0 0h24v24H0z"/><path d="M21 3H3a2 2 0 0 0-2 2v12a2 2 0 0 0 2 2h5v2h8v-2h5a2 2 0 0 0 2-2V5a2 2 0 0 0-2-2zm0 14H3V5h18z"/></symbol></svg>