<svg id="Layer_1" data-name="Layer 1" xmlns="http://www.w3.org/2000/svg" xmlns:xlink="http://www.w3.org/1999/xlink" width="256" height="115" viewBox="0 0 256 115"><defs><linearGradient id="linear-gradient" x1="36.8" y1="86.94" x2="36.8" y2="1.01" gradientUnits="userSpaceOnUse"><stop offset="0" stop-color="#f50057"/><stop offset="1" stop-color="#ff1744"/></linearGradient></defs><title>upnext-white</title><path d="M70,53.6a3,3,0,0,1,3.1,2L84.8,84.3c.3.8,1,.6,1-.2V56.2a2.4,2.4,0,0,1,2.6-2.6h9.7a2.3,2.3,0,0,1,2.6,2.6v55.2a2.4,2.4,0,0,1-2.6,2.6H85.4a2.9,2.9,0,0,1-3-2L70.6,83.3c-.3-.8-1-.6-1,.2v27.9A2.4,2.4,0,0,1,67,114H57.4a2.4,2.4,0,0,1-2.6-2.6V56.2a2.3,2.3,0,0,1,2.6-2.6Z" fill="#fff"/><path d="M148.1,53.6a2.3,2.3,0,0,1,2.6,2.6v9.7a2.3,2.3,0,0,1-2.6,2.5H127.2a2.4,2.4,0,0,0-2.6,2.6v2.8a2.4,2.4,0,0,0,2.6,2.6h13.4a2.3,2.3,0,0,1,2.6,2.6v9.6a2.3,2.3,0,0,1-2.6,2.6H127.2a2.4,2.4,0,0,0-2.6,2.6v2.8a2.4,2.4,0,0,0,2.6,2.6h20.9c1.7,0,2.6.8,2.6,2.5v9.7a2.3,2.3,0,0,1-2.6,2.6H111.9a2.4,2.4,0,0,1-2.6-2.6V56.2a2.3,2.3,0,0,1,2.6-2.6Z" fill="#fff"/><path d="M204,110.9c1.1,1.8.3,3.1-1.8,3.1H191.5a3.2,3.2,0,0,1-3.1-1.7l-8.5-14.5q-.6-.9-1.2,0l-8.2,14.4a3.2,3.2,0,0,1-3.1,1.8H155.6c-2.1,0-2.8-1.3-1.8-3.1l16.6-28a1.5,1.5,0,0,0,0-1.3L155.7,56.7c-1-1.8-.3-3.1,1.8-3.1h10.7a3.2,3.2,0,0,1,3.1,1.7l7,12c.4.6.9.6,1.2,0l7.1-12a3.2,3.2,0,0,1,3.1-1.7h10.8c2,0,2.7,1.3,1.7,3.1L187.7,82.1a1.3,1.3,0,0,0,0,1.2Z" fill="#fff"/><path d="M222.9,71a2.3,2.3,0,0,0-2.6-2.6H208.2a2.3,2.3,0,0,1-2.5-2.5V56.2a2.3,2.3,0,0,1,2.5-2.6h44.2a2.3,2.3,0,0,1,2.6,2.6v9.7a2.3,2.3,0,0,1-2.6,2.5H240.3a2.4,2.4,0,0,0-2.6,2.6v40.4a2.3,2.3,0,0,1-2.5,2.6h-9.7a2.4,2.4,0,0,1-2.6-2.6Z" fill="#fff"/><path d="M51,1H32.1a2.4,2.4,0,0,0-2.6,2.7V61.4c0,6.6-.5,10.7-6.8,10.7S15.8,68,15.8,61.4V27.6A2.3,2.3,0,0,0,13.3,25H3.6A2.3,2.3,0,0,0,1,27.6V66c0,5.7,1.2,20.9,21.7,20.9S44.3,71.7,44.3,66V44.9a2.3,2.3,0,0,1,2.6-2.5H51c15.4,0,21.6-6.5,21.6-20.7S66.4,1,51,1Zm.6,26.6H46.9a2.3,2.3,0,0,1-2.6-2.5V18.4a2.4,2.4,0,0,1,2.6-2.6h4.7c4.1,0,6.2.6,6.2,5.9S55.7,27.6,51.6,27.6Z" fill="url(#linear-gradient)"/></svg>